<?xml version="1.0" encoding="UTF-8"?>
<svg width="1440px" height="1080px" viewBox="0 0 1440 1080" xmlns="http://www.w3.org/2000/svg" xmlns:xlink="http://www.w3.org/1999/xlink" version="1.1">
 <!-- Generated by Pixelmator Pro 2.0.8 -->
 <g id="New-Group-copy">
  <defs>
   <linearGradient id="linear-gradient" gradientUnits="userSpaceOnUse" x1="720.333" y1="1080" x2="720.333" y2="0">
    <stop offset="0" stop-color="#dc2b20" stop-opacity="1"/>
    <stop offset="1" stop-color="#dc5262" stop-opacity="1"/>
   </linearGradient>
  </defs>
  <path id="Horizontal" d="M0.333 1080 L1440.333 1080 1440.333 0 0.333 0 Z" fill-opacity="1" fill="url(#linear-gradient)" stroke="none"/>
  <g id="New-Group">
   <g id="New-Group-copy-1">
    <path id="Ellipse" d="M1010.845 468.419 C1010.845 308.205 880.966 178.326 720.752 178.326 560.538 178.326 430.659 308.205 430.659 468.419 430.659 628.633 560.538 758.512 720.752 758.512 880.966 758.512 1010.845 628.633 1010.845 468.419 Z" fill="#ffffff" fill-opacity="1" stroke="none"/>
    <g id="New-Group-1">
     <path id="Triangle" d="M684.961 298.884 L523.589 578.93 846.333 578.93 Z" fill="#7c7c7c" fill-opacity="1" stroke="none"/>
     <path id="Triangle-copy" d="M796.101 369.713 L675.543 578.93 916.659 578.93 Z" fill="#7c7c7c" fill-opacity="1" stroke="none"/>
    </g>
   </g>
   <defs>
    <text id="string" transform="matrix(1.0 0.0 0.0 1.0 300.0 806.0)" y="63.0" x="1.844249636448808" text-decoration="none" font-size="62.791" fill="#ffffff" font-family="IstokWeb-Bold, Istok Web">Video Preview Not Available</text>
   </defs>
   <use id="Video-Preview-Not-Available" xlink:href="#string"/>
  </g>
 </g>
</svg>
