<?xml version="1.0" encoding="UTF-8"?>
<svg width="810px" height="1080px" viewBox="0 0 810 1080" xmlns="http://www.w3.org/2000/svg" xmlns:xlink="http://www.w3.org/1999/xlink" version="1.1">
 <!-- Generated by Pixelmator Pro 2.0.8 -->
 <g id="New-Group-copy-1">
  <defs>
   <linearGradient id="linear-gradient" gradientUnits="userSpaceOnUse" x1="405" y1="1080" x2="405" y2="0">
    <stop offset="0" stop-color="#dc2b20" stop-opacity="1"/>
    <stop offset="1" stop-color="#dc5262" stop-opacity="1"/>
   </linearGradient>
  </defs>
  <path id="Vertical" d="M0 1080 L810 1080 810 0 0 0 Z" fill-opacity="1" fill="url(#linear-gradient)" stroke="none"/>
  <g id="New-Group">
   <path id="Ellipse" d="M646.332 454.517 C646.332 321.521 538.517 213.707 405.521 213.707 272.525 213.707 164.71 321.521 164.71 454.517 164.71 587.514 272.525 695.328 405.521 695.328 538.517 695.328 646.332 587.514 646.332 454.517 Z" fill="#ffffff" fill-opacity="1" stroke="none"/>
   <g id="New-Group-1">
    <path id="Triangle" d="M375.811 313.784 L241.853 546.255 509.768 546.255 Z" fill="#7c7c7c" fill-opacity="1" stroke="none"/>
    <path id="Triangle-copy" d="M468.069 372.58 L367.992 546.255 568.147 546.255 Z" fill="#7c7c7c" fill-opacity="1" stroke="none"/>
   </g>
  </g>
  <defs>
   <text id="string" transform="matrix(1.0 0.0 0.0 1.0 56.0 787.0)" text-decoration="none" fill="#ffffff" x="1.467234254088794" y="52.0" font-family="IstokWeb-Bold, Istok Web" font-size="52.124">Video Preview Not Available</text>
  </defs>
  <use id="Video-Preview-Not-Available" xlink:href="#string"/>
 </g>
</svg>
